HIERARCHY
ROOT Hips
{
	OFFSET -3.958830 18.904000 13.208200
	CHANNELS 6 Xposition Yposition Zposition Zrotation Yrotation Xrotation 
	JOINT LHipJoint
	{
		OFFSET 0.000000 0.000000 0.000000
		CHANNELS 3 Zrotation Yrotation Xrotation
		JOINT LeftUpLeg
		{
			OFFSET 1.800000 -1.400000 0.085000
			CHANNELS 3 Zrotation Yrotation Xrotation
			JOINT LeftLeg
			{
				OFFSET 2.215000 -6.000000 0.000000
				CHANNELS 3 Zrotation Yrotation Xrotation
				JOINT LeftFoot
				{
					OFFSET 2.500000 -6.900000 0.000000
					CHANNELS 3 Zrotation Yrotation Xrotation
					JOINT LeftToeBase
					{
						OFFSET 0.200000 -0.500000 1.950000
						CHANNELS 3 Zrotation Yrotation Xrotation
						End Site
						{
							OFFSET 0.000000 0.000000 0.000000
						}
					}
				}
			}
		}
	}
	JOINT RHipJoint
	{
		OFFSET 0.000000 0.000000 0.000000
		CHANNELS 3 Zrotation Yrotation Xrotation
		JOINT RightUpLeg
		{
			OFFSET -1.800000 -1.400000 0.085000
			CHANNELS 3 Zrotation Yrotation Xrotation
			JOINT RightLeg
			{
				OFFSET -2.215000 -6.000000 0.000000
				CHANNELS 3 Zrotation Yrotation Xrotation
				JOINT RightFoot
				{
					OFFSET -2.500000 -6.900000 0.000000
					CHANNELS 3 Zrotation Yrotation Xrotation
					JOINT RightToeBase
					{
						OFFSET -0.200000 -0.500000 1.950000
						CHANNELS 3 Zrotation Yrotation Xrotation
						End Site
						{
							OFFSET 0.000000 0.000000 0.000000
						}
					}
				}
			}
		}
	}
	JOINT LowerBack
	{
		OFFSET 0.000000 0.000000 0.000000
		CHANNELS 3 Zrotation Yrotation Xrotation
		JOINT Spine
		{
			OFFSET -0.087000 1.940000 -0.288900
			CHANNELS 3 Zrotation Yrotation Xrotation
			JOINT Spine1
			{
				OFFSET 0.000000 1.950000 0.060000
				CHANNELS 3 Zrotation Yrotation Xrotation
				JOINT Neck
				{
					OFFSET 0.000000 0.000000 0.000000
					CHANNELS 3 Zrotation Yrotation Xrotation
					JOINT Neck1
					{
						OFFSET 0.000000 1.600000 0.340000
						CHANNELS 3 Zrotation Yrotation Xrotation
						JOINT Head
						{
							OFFSET 0.000000 1.667000 -0.240000
							CHANNELS 3 Zrotation Yrotation Xrotation
							End Site
							{
								OFFSET 0.000000 0.000000 0.000000
							}
						}
					}
				}
				JOINT LeftShoulder
				{
					OFFSET 0.000000 0.000000 0.000000
					CHANNELS 3 Zrotation Yrotation Xrotation
					JOINT LeftArm
					{
						OFFSET 2.700000 1.550000 -0.730000
						CHANNELS 3 Zrotation Yrotation Xrotation
						JOINT LeftForeArm
						{
							OFFSET 5.450000 0.000000 0.000000
							CHANNELS 3 Zrotation Yrotation Xrotation
							JOINT LeftHand
							{
								OFFSET 3.450000 0.000000 0.000000
								CHANNELS 3 Zrotation Yrotation Xrotation
								JOINT LeftHandIndex1
								{
									OFFSET 0.750000 0.000000 0.000000
									CHANNELS 3 Zrotation Yrotation Xrotation
									End Site
									{
										OFFSET 0.000000 0.000000 0.000000
									}
								}
							}
						}
					}
				}
				JOINT RightShoulder
				{
					OFFSET 0.000000 0.000000 0.000000
					CHANNELS 3 Zrotation Yrotation Xrotation
					JOINT RightArm
					{
						OFFSET -2.700000 1.550000 -0.730000
						CHANNELS 3 Zrotation Yrotation Xrotation
						JOINT RightForeArm
						{
							OFFSET -5.450000 0.000000 0.000000
							CHANNELS 3 Zrotation Yrotation Xrotation
							JOINT RightHand
							{
								OFFSET -3.450000 0.000000 0.000000
								CHANNELS 3 Zrotation Yrotation Xrotation
								JOINT RightHandIndex1
								{
									OFFSET -0.750000 0.000000 0.000000
									CHANNELS 3 Zrotation Yrotation Xrotation
									End Site
									{
										OFFSET 0.000000 0.000000 0.000000
									}
								}
							}
						}
					}
				}
			}
		}
	}
}
MOTION
Frames: 12
Frame Time: 0.016667
-0.500760 16.206280 -1.184510 -4.243988 -19.054240 8.883188 -14.616324 12.769799 2.505969 10.494039 -2.216352 -19.444947 -2.447087 5.406965 18.793183 -0.491086 4.105736 3.384386 0.185410 -0.082670 0.050800 18.669959 -11.762626 3.190923 -6.519213 2.872747 -23.633369 5.944479 -3.737853 10.065894 0.330888 -3.023997 3.539656 0.144140 0.712880 0.247770 -4.675516 1.551243 -6.895044 14.206319 -1.511658 6.032993 -2.439212 -1.397288 -4.189852 1.897534 -1.328686 -4.095950 -0.242707 -2.868615 19.673719 -7.918060 -2.716640 3.994710 -4.308936 19.570209 -5.047622 -46.643657 1.156703 -3.846032 50.380752 -45.148095 -13.080620 -4.278326 3.083029 -0.071870 0.602680 -0.458370 0.340800 -1.169806 -14.546571 5.075262 46.546850 9.751189 5.499230 -133.387618 38.853023 -90.573795 1.986420 -2.311271 -0.289340 0.158720 -0.070290 0.022750 
-0.495140 16.198950 -1.182030 -4.479402 -18.859513 8.781708 -14.599963 12.704073 2.495735 10.967888 -2.182717 -19.296948 -2.769810 5.543027 18.812590 -0.514154 4.186370 3.360029 0.184870 -0.086520 0.053940 18.683287 -11.816467 3.209966 -6.398818 2.736507 -22.705249 6.089640 -3.646061 8.934074 0.325769 -3.071776 3.529976 0.159310 0.732920 0.249900 -4.715667 1.769071 -6.915797 14.444281 -1.173796 5.922422 -3.034804 -0.957730 -4.200228 2.586867 -1.050718 -4.090081 0.333221 -3.149247 19.688387 -8.262220 -2.804660 4.179250 -5.075539 19.110642 -5.253517 -45.479322 0.126668 -3.291950 50.654991 -45.960884 -13.635902 -4.300120 3.070591 -0.075370 0.623690 -0.473480 0.340100 -1.841582 -14.058275 5.218717 43.390738 11.453601 5.630117 -131.460956 35.326009 -81.305796 1.972879 -2.329930 -0.307720 0.174640 -0.060470 0.015500 
-0.490640 16.196310 -1.177770 -4.638130 -18.574458 8.635106 -14.591926 12.669728 2.477923 11.304386 -2.142207 -18.951311 -2.945337 5.558284 18.473482 -0.529394 4.208738 3.357611 0.194130 -0.080770 0.060920 18.689722 -11.853958 3.215237 -6.324900 2.609145 -21.987758 6.112663 -3.588666 8.252813 0.321101 -3.121284 3.517144 0.175080 0.746650 0.256720 -4.736580 1.895646 -6.920511 14.642370 -1.077821 5.742190 -3.870004 -0.779776 -3.937737 3.319447 -0.886681 -4.123910 0.701176 -3.412901 19.636866 -8.445900 -3.000870 4.407590 -5.571361 18.716390 -5.405493 -44.372572 -0.673720 -2.912207 51.014813 -46.451748 -14.117014 -4.318977 3.074033 -0.087900 0.641600 -0.487260 0.341610 -2.807780 -13.661793 5.444863 40.137886 12.436865 5.480167 -129.370621 33.572124 -74.711214 1.980210 -2.348835 -0.312250 0.179300 -0.057910 0.012650 
-0.488420 16.198830 -1.173350 -4.717932 -18.369507 8.528298 -14.596224 12.659488 2.469348 11.568684 -2.107957 -18.531654 -3.179895 5.538571 17.825913 -0.539854 4.210699 3.368061 0.187130 -0.090320 0.049560 18.686730 -11.867794 3.199560 -6.208672 2.524743 -21.627506 5.945057 -3.562405 8.152625 0.331828 -3.160142 3.510739 0.181110 0.771320 0.260740 -4.727887 1.922809 -6.913402 14.655963 -1.156158 5.498017 -4.669051 -0.753499 -3.617453 3.971926 -0.836252 -4.170991 0.850182 -3.641549 19.537738 -8.628890 -3.172510 5.040500 -5.683136 18.462473 -5.430686 -43.578201 -1.033622 -2.884698 51.329135 -46.962457 -14.709957 -4.343772 3.081222 -0.111210 0.667210 -0.513700 0.342690 -3.955922 -13.384701 5.558532 36.582042 12.816090 4.936243 -126.546108 32.601001 -68.330469 1.998431 -2.363515 -0.318540 0.181050 -0.047260 0.014400 
-0.489690 16.204020 -1.167990 -4.654448 -18.238456 8.472680 -14.614118 12.670103 2.470620 11.702848 -2.095400 -18.124482 -3.448833 5.499501 17.054109 -0.545505 4.213348 3.384594 0.169180 -0.113560 0.021410 18.673128 -11.848885 3.168796 -6.193731 2.470707 -21.530370 5.771832 -3.563730 8.364458 0.352501 -3.193501 3.504152 0.180960 0.810600 0.265630 -4.687410 1.842958 -6.899527 14.435023 -1.407830 5.235710 -5.458366 -0.894165 -3.363492 4.479963 -0.936775 -4.155105 0.726093 -3.708438 19.349690 -8.446510 -3.497550 5.864070 -5.561282 18.426182 -5.375654 -42.918407 -0.956827 -3.018891 51.796917 -47.431592 -15.359378 -4.374919 3.091619 -0.139920 0.696730 -0.550240 0.346090 -5.019591 -13.308700 5.492331 32.562866 12.586531 4.231955 -123.054739 32.868209 -63.034549 2.025236 -2.362213 -0.327520 0.183740 -0.028800 0.022990 
-0.491640 16.211830 -1.164790 -4.576772 -18.192092 8.349791 -14.635751 12.724816 2.481505 11.737676 -2.063082 -17.629061 -3.596895 5.409658 16.195039 -0.538514 4.181723 3.409501 0.149280 -0.133400 -0.008580 18.649825 -11.814895 3.135940 -6.156178 2.426591 -21.509673 5.560675 -3.582908 8.811430 0.370152 -3.202653 3.506646 0.172480 0.834010 0.262180 -4.623087 1.657744 -6.908690 14.279233 -1.769754 5.224759 -6.328754 -1.075079 -3.261119 4.939239 -1.162625 -4.191073 0.330669 -3.784603 19.431774 -8.161260 -3.886810 6.491950 -5.398277 18.429790 -5.263624 -42.319852 -0.613137 -3.243674 52.633341 -47.984312 -16.193764 -4.379897 3.089643 -0.159920 0.708640 -0.574070 0.347320 -6.051976 -13.203522 5.411080 28.473961 11.668534 3.338912 -119.061802 33.978914 -58.592772 2.064269 -2.335846 -0.329940 0.184010 -0.014960 0.034310 
-0.492280 16.219370 -1.162660 -4.540506 -18.215094 8.168222 -14.655943 12.796420 2.504369 11.857448 -1.997764 -17.044096 -3.858726 5.356286 15.254407 -0.523882 4.169402 3.427056 0.123530 -0.164600 -0.045370 18.625052 -11.767538 3.103065 -6.077911 2.389167 -21.433077 5.337471 -3.607672 9.269644 0.386091 -3.199945 3.519051 0.152420 0.856130 0.256010 -4.557600 1.416155 -6.939454 14.306416 -2.205082 5.355841 -7.348857 -1.290273 -3.129709 5.364904 -1.471008 -4.313568 -0.262109 -3.797616 19.759603 -7.641670 -4.426830 7.052390 -5.230252 18.362811 -5.091496 -41.785198 -0.090860 -3.421156 54.425587 -48.488222 -17.377606 -4.374668 3.069325 -0.168950 0.711670 -0.595560 0.347860 -7.036306 -12.993750 5.408613 24.509878 10.208616 2.495785 -114.913741 36.121283 -55.653644 2.097224 -2.277163 -0.332520 0.186910 0.004700 0.045450 
-0.494620 16.228290 -1.161250 -4.598362 -18.254327 8.036880 -14.670166 12.852398 2.518836 12.038162 -1.932899 -16.590961 -4.050182 5.319698 14.542440 -0.504077 4.168146 3.436667 0.112940 -0.178360 -0.069990 18.611018 -11.720764 3.073877 -5.898232 2.368734 -21.325371 5.135931 -3.616234 9.649372 0.392992 -3.194390 3.524636 0.140740 0.869960 0.254200 -4.520308 1.206498 -6.958083 14.544800 -2.627559 5.369329 -8.480823 -1.535935 -2.793794 5.767199 -1.789557 -4.391576 -0.856328 -3.900014 20.003140 -7.058710 -5.082420 7.365840 -4.972040 18.370511 -5.002337 -41.395186 0.356121 -3.641587 55.454579 -48.542758 -18.024148 -4.365723 3.068543 -0.179010 0.708300 -0.608310 0.351340 -8.052889 -12.857689 5.470045 20.861521 8.355681 1.861957 -110.913697 39.064799 -53.971671 2.123895 -2.208616 -0.326510 0.186300 0.014530 0.059050 
-0.497870 16.239550 -1.160410 -4.735620 -18.328034 7.893774 -14.683626 12.909547 2.537284 12.287193 -1.854193 -16.214465 -4.274458 5.333033 14.018595 -0.495260 4.187063 3.431890 0.099870 -0.191830 -0.093440 18.597767 -11.671834 3.049183 -5.588173 2.348569 -21.107365 4.855308 -3.593176 9.899352 0.397842 -3.170930 3.538320 0.131950 0.874700 0.240800 -4.483881 0.992654 -6.988491 14.863376 -3.033861 5.470776 -9.561369 -1.762079 -2.423021 6.203731 -2.071773 -4.515383 -1.420114 -4.087704 20.363807 -6.475090 -5.792180 7.327110 -4.636176 18.460635 -5.035416 -41.370005 0.773821 -3.903970 55.941660 -48.125362 -18.158791 -4.348577 3.054235 -0.172900 0.694580 -0.614330 0.349430 -9.216665 -12.729260 5.705000 17.660240 6.112945 1.433461 -107.552317 42.749087 -53.654273 2.134875 -2.098130 -0.330540 0.196760 0.027590 0.066160 
-0.500910 16.250980 -1.158770 -4.876074 -18.397407 7.750825 -14.686926 12.960830 2.558368 12.512173 -1.779379 -15.950086 -4.509403 5.381220 13.706555 -0.486342 4.224150 3.424258 0.083510 -0.213670 -0.121930 18.592054 -11.631129 3.032792 -5.351481 2.322393 -20.814278 4.652732 -3.576055 10.023040 0.402595 -3.156235 3.550568 0.119000 0.887690 0.226480 -4.473162 0.805585 -7.028097 15.442484 -3.441598 5.596731 -10.910437 -1.958311 -2.128422 6.643466 -2.480564 -4.674223 -2.169961 -4.216947 20.693751 -5.713680 -6.623760 7.352050 -4.467593 18.397072 -5.068985 -41.059224 1.262001 -4.135935 56.024311 -47.299651 -17.899065 -4.334895 3.048292 -0.163910 0.681030 -0.625990 0.349500 -10.282328 -12.275134 5.984311 14.026868 3.574981 1.192367 -104.388399 47.325895 -54.002220 2.121404 -1.933449 -0.338800 0.210600 0.044190 0.074490 
-0.501450 16.269050 -1.160060 -5.128706 -18.459790 7.420716 -14.670914 13.043619 2.587421 12.787422 -1.678914 -15.667664 -4.618338 5.440448 13.624974 -0.453885 4.240398 3.417379 0.071920 -0.226960 -0.146990 18.592903 -11.614291 3.031420 -4.947381 2.270357 -20.326870 4.299738 -3.537073 10.150987 0.396228 -3.117484 3.578279 0.094910 0.879010 0.204880 -4.490594 0.611286 -7.110374 16.459251 -4.001866 6.127831 -12.705068 -2.180454 -2.025431 7.169244 -2.962155 -4.997044 -3.113502 -4.180578 21.553616 -4.620460 -7.467890 7.252580 -4.561656 18.063080 -5.014115 -40.446282 1.839270 -4.281427 56.907083 -46.313760 -17.839526 -4.290921 3.035482 -0.142089 0.644190 -0.617770 0.352250 -11.347675 -11.361491 6.392153 10.638807 1.148045 1.147318 -101.262577 52.670918 -54.619214 2.074283 -1.673102 -0.334810 0.218370 0.048160 0.086330 
-0.501440 16.288280 -1.162030 -5.467199 -18.364092 6.961083 -14.645802 13.133845 2.611780 13.120973 -1.587019 -15.458440 -4.599556 5.507400 13.808042 -0.432224 4.270541 3.400615 0.063550 -0.244570 -0.160050 18.599559 -11.609060 3.034307 -4.527539 2.183231 -19.643813 4.009047 -3.530592 10.277946 0.378190 -3.088421 3.594663 0.069590 0.861240 0.186120 -4.529107 0.422631 -7.198583 17.707065 -4.639267 6.816084 -14.711659 -2.439337 -1.910220 7.754853 -3.365494 -5.336037 -3.969777 -4.145871 22.628679 -3.466590 -8.299650 6.891780 -4.908937 17.467928 -4.901797 -39.502173 2.373260 -4.351584 58.108877 -45.319513 -17.940102 -4.240623 3.015483 -0.103400 0.598640 -0.599780 0.350360 -12.289172 -10.243165 6.738964 7.530620 -1.178395 1.221270 -98.396879 58.805504 -55.491481 1.935802 -1.253525 -0.334850 0.227430 0.053970 0.089610 
